<svg width="27" height="22" viewBox="0 0 27 22" fill="none" xmlns="http://www.w3.org/2000/svg">
<path d="M25.3125 17.75C25.3125 18.1976 25.1347 18.6268 24.8182 18.9432C24.5018 19.2597 24.0726 19.4375 23.625 19.4375H3.375C2.92745 19.4375 2.49822 19.2597 2.18176 18.9432C1.86529 18.6268 1.6875 18.1976 1.6875 17.75V7.625C1.6875 7.17745 1.86529 6.74823 2.18176 6.43176C2.49822 6.11529 2.92745 5.9375 3.375 5.9375H5.35275C6.69471 5.93677 7.98148 5.40324 8.93025 4.45419L10.3309 3.05694C10.6464 2.74127 11.0742 2.56349 11.5206 2.5625H15.4761C15.9236 2.5626 16.3527 2.74045 16.6691 3.05694L18.0664 4.45419C18.5366 4.92452 19.0948 5.2976 19.7092 5.55211C20.3237 5.80662 20.9822 5.93758 21.6472 5.9375H23.625C24.0726 5.9375 24.5018 6.11529 24.8182 6.43176C25.1347 6.74823 25.3125 7.17745 25.3125 7.625V17.75ZM3.375 4.25C2.47989 4.25 1.62145 4.60558 0.988515 5.23851C0.355579 5.87145 0 6.72989 0 7.625V17.75C0 18.6451 0.355579 19.5035 0.988515 20.1365C1.62145 20.7694 2.47989 21.125 3.375 21.125H23.625C24.5201 21.125 25.3785 20.7694 26.0115 20.1365C26.6444 19.5035 27 18.6451 27 17.75V7.625C27 6.72989 26.6444 5.87145 26.0115 5.23851C25.3785 4.60558 24.5201 4.25 23.625 4.25H21.6472C20.7522 4.24981 19.8939 3.8941 19.2611 3.26113L17.8639 1.86387C17.2311 1.2309 16.3728 0.875191 15.4777 0.875H11.5223C10.6272 0.875191 9.76891 1.2309 9.13612 1.86387L7.73887 3.26113C7.10609 3.8941 6.24778 4.24981 5.35275 4.25H3.375Z" fill="black"/>
<path d="M13.5 16.0625C12.3811 16.0625 11.3081 15.618 10.5169 14.8269C9.72572 14.0357 9.28125 12.9626 9.28125 11.8438C9.28125 10.7249 9.72572 9.65181 10.5169 8.86064C11.3081 8.06947 12.3811 7.625 13.5 7.625C14.6189 7.625 15.6919 8.06947 16.4831 8.86064C17.2743 9.65181 17.7188 10.7249 17.7188 11.8438C17.7188 12.9626 17.2743 14.0357 16.4831 14.8269C15.6919 15.618 14.6189 16.0625 13.5 16.0625ZM13.5 17.75C15.0664 17.75 16.5687 17.1277 17.6763 16.0201C18.784 14.9125 19.4062 13.4102 19.4062 11.8438C19.4062 10.2773 18.784 8.77504 17.6763 7.6674C16.5687 6.55976 15.0664 5.9375 13.5 5.9375C11.9336 5.9375 10.4313 6.55976 9.32365 7.6674C8.21601 8.77504 7.59375 10.2773 7.59375 11.8438C7.59375 13.4102 8.21601 14.9125 9.32365 16.0201C10.4313 17.1277 11.9336 17.75 13.5 17.75ZM5.0625 8.46875C5.0625 8.69253 4.97361 8.90714 4.81537 9.06537C4.65714 9.22361 4.44253 9.3125 4.21875 9.3125C3.99497 9.3125 3.78036 9.22361 3.62213 9.06537C3.46389 8.90714 3.375 8.69253 3.375 8.46875C3.375 8.24497 3.46389 8.03036 3.62213 7.87213C3.78036 7.71389 3.99497 7.625 4.21875 7.625C4.44253 7.625 4.65714 7.71389 4.81537 7.87213C4.97361 8.03036 5.0625 8.24497 5.0625 8.46875Z" fill="black"/>
</svg>
